<?xml version="1.0" standalone="no"?>
<!DOCTYPE svg PUBLIC "-//W3C//DTD SVG 20010904//EN"
 "http://www.w3.org/TR/2001/REC-SVG-20010904/DTD/svg10.dtd">
<svg version="1.0" xmlns="http://www.w3.org/2000/svg"
 width="64.000000pt" height="64.000000pt" viewBox="0 0 64.000000 64.000000"
 preserveAspectRatio="xMidYMid meet">

<g transform="translate(0.000000,64.000000) scale(0.100000,-0.100000)"
fill="#000000" stroke="none">
<path d="M480 543 c-178 -52 -222 -81 -265 -177 -41 -91 -37 -93 33 -26 57 55
171 130 197 130 5 0 -21 -22 -56 -49 -109 -83 -233 -224 -288 -329 -10 -18 -9
-22 4 -22 8 0 35 30 59 68 43 67 43 68 139 106 89 35 120 56 81 56 -8 0 -12 4
-9 10 3 6 24 10 45 10 35 0 42 5 70 44 16 25 30 47 30 50 0 2 -15 6 -32 8
l-33 4 42 13 c42 14 52 27 72 99 5 17 7 31 3 31 -4 -1 -45 -13 -92 -26z"/>
<path d="M419 201 c-30 -24 -16 -44 46 -61 103 -29 50 -50 -147 -57 -82 -3
-148 -9 -148 -14 0 -27 305 -23 359 5 55 29 34 66 -49 86 -27 7 -50 15 -50 20
0 9 50 20 91 20 16 0 29 5 29 10 0 19 -106 12 -131 -9z"/>
</g>
</svg>
