<?xml version="1.0" standalone="no"?>
<!DOCTYPE svg PUBLIC "-//W3C//DTD SVG 20010904//EN"
 "http://www.w3.org/TR/2001/REC-SVG-20010904/DTD/svg10.dtd">
<svg version="1.0" xmlns="http://www.w3.org/2000/svg"
 width="900.000000pt" height="902.000000pt" viewBox="0 0 900.000000 902.000000"
 preserveAspectRatio="xMidYMid meet">

<g transform="translate(0.000000,902.000000) scale(0.100000,-0.100000)"
fill="#000000" stroke="none">
<path d="M1915 8985 c-829 -137 -1501 -687 -1779 -1459 -93 -257 -130 -468
-130 -751 0 -383 62 -658 224 -993 113 -233 233 -404 415 -591 258 -265 546
-447 890 -560 316 -104 692 -148 788 -92 89 51 88 199 -2 245 -17 9 -95 22
-192 31 -265 25 -455 73 -668 169 -235 106 -415 229 -592 405 -251 250 -414
540 -519 921 -34 123 -41 202 -41 462 0 207 3 262 20 345 58 284 171 543 341
785 128 181 361 399 555 518 92 57 289 150 396 188 204 72 477 110 710 98 433
-22 780 -148 1106 -403 500 -390 785 -990 760 -1603 -10 -239 -56 -455 -148
-693 -57 -146 -63 -193 -33 -234 39 -53 83 -75 139 -70 42 4 54 10 83 43 46
53 92 153 146 314 83 250 123 524 112 770 -31 744 -402 1404 -1019 1811 -217
144 -483 258 -727 312 -154 35 -269 47 -495 52 -169 4 -207 2 -340 -20z"/>
<path d="M2135 8104 c-16 -2 -66 -9 -109 -15 -244 -33 -499 -159 -694 -343
-211 -200 -371 -495 -413 -761 -18 -118 -16 -371 5 -478 33 -172 109 -349 220
-512 118 -174 361 -386 477 -416 41 -11 50 -10 92 10 76 37 107 113 73 179
-17 32 -71 85 -141 136 -192 142 -358 384 -416 606 -19 70 -22 112 -22 240 0
182 11 250 64 386 117 299 406 563 704 641 80 22 454 24 535 4 266 -66 548
-297 678 -556 43 -88 88 -237 101 -340 25 -197 54 -255 136 -271 48 -9 123 29
150 76 54 95 -10 451 -122 675 -129 257 -369 490 -626 610 -119 55 -199 81
-326 105 -100 20 -304 33 -366 24z"/>
<path d="M2120 7181 c-157 -50 -306 -175 -373 -311 -55 -111 -70 -186 -65
-305 6 -124 38 -225 111 -345 224 -373 1542 -2447 1943 -3057 93 -142 141
-206 163 -217 83 -43 196 12 208 101 4 35 -6 56 -134 268 -185 305 -316 513
-933 1485 -156 245 -321 506 -368 580 -47 74 -111 176 -142 225 -499 791 -529
841 -539 904 -12 75 -3 167 21 224 41 95 161 168 283 170 50 1 70 -4 122 -32
120 -64 34 45 1148 -1476 603 -822 709 -961 746 -974 71 -25 144 -3 179 54 28
45 25 87 -11 196 -27 81 -30 105 -27 170 16 281 316 456 566 330 75 -38 133
-102 235 -258 101 -155 150 -203 207 -203 32 0 48 7 81 38 75 67 78 90 25 244
-61 179 -5 358 145 461 82 56 210 72 346 44 115 -25 163 -75 334 -355 52 -85
109 -171 127 -193 57 -67 139 -62 206 11 49 55 52 76 22 167 -43 130 -30 207
50 301 41 48 87 66 170 65 84 -1 157 -26 187 -66 82 -109 539 -864 861 -1425
325 -565 378 -716 470 -1329 50 -334 126 -691 163 -768 9 -18 13 -40 10 -48
-7 -18 -226 -145 -1062 -617 -110 -62 -265 -150 -345 -195 -416 -236 -988
-557 -1174 -658 -60 -34 -52 -38 -218 119 -355 336 -685 595 -1143 896 -365
241 -732 452 -1137 654 -520 260 -760 357 -1284 518 -496 153 -479 147 -477
180 11 153 321 401 564 452 98 20 160 10 531 -86 168 -44 318 -80 333 -80 95
0 172 125 130 213 -19 41 -48 54 -250 118 -352 110 -626 157 -767 130 -477
-90 -884 -490 -844 -829 8 -66 49 -145 92 -178 33 -25 178 -77 389 -140 641
-190 916 -296 1425 -551 458 -229 769 -408 1155 -664 399 -265 718 -517 1048
-827 234 -220 316 -291 344 -298 16 -4 66 17 175 74 139 72 653 356 983 542
72 40 166 94 210 118 479 266 1417 809 1611 932 12 7 29 27 39 43 23 39 17 72
-55 295 -71 219 -98 340 -144 658 -105 715 -165 878 -591 1609 -400 686 -725
1225 -793 1319 -37 50 -130 118 -219 158 -43 20 -65 22 -213 23 l-166 0 -79
-39 c-59 -29 -98 -58 -153 -114 l-73 -74 -45 39 c-162 137 -259 190 -366 202
-106 11 -329 4 -377 -13 -144 -49 -322 -199 -396 -333 -22 -40 -43 -73 -47
-73 -4 0 -34 16 -66 35 -183 107 -431 124 -627 42 -135 -56 -292 -197 -351
-313 -16 -33 -30 -61 -31 -63 -8 -14 -141 160 -658 864 -725 988 -823 1108
-967 1185 -125 67 -327 90 -448 51z"/>
</g>
</svg>
